<svg width="257" height="400" viewBox="0 0 257 400" fill="none" xmlns="http://www.w3.org/2000/svg">
<path fill-rule="evenodd" clip-rule="evenodd" d="M215.775 -50.5C195.918 -50.5 177.92 -47.9307 164.87 -43.7637C158.348 -41.6811 153.034 -39.1907 149.339 -36.4016C145.653 -33.6187 143.5 -30.4743 143.5 -27.0816C143.5 -23.689 145.653 -20.5446 149.339 -17.7617C151.162 -16.3857 153.379 -15.0824 155.941 -13.8649C153.379 -12.6474 151.162 -11.3441 149.339 -9.9681C145.653 -7.18523 143.5 -4.04085 143.5 -0.648186C143.5 2.7445 145.653 5.88891 149.339 8.67182C151.177 10.0595 153.416 11.3733 156.006 12.5997C153.416 13.8338 151.176 15.1558 149.338 16.5522C145.651 19.3524 143.5 22.5152 143.5 25.9259C143.5 29.3366 145.651 32.4993 149.338 35.2996C151.176 36.6961 153.416 38.0181 156.006 39.2523C153.417 40.4786 151.177 41.7924 149.339 43.1801C145.653 45.9629 143.5 49.1073 143.5 52.5C143.5 55.8927 145.653 59.037 149.339 61.8199C151.162 63.1959 153.379 64.4992 155.941 65.7167C153.379 66.9343 151.162 68.2376 149.339 69.6137C145.653 72.3966 143.5 75.541 143.5 78.9337C143.5 82.3264 145.653 85.4707 149.339 88.2536C151.162 89.6296 153.379 90.9329 155.94 92.1503C153.379 93.3678 151.162 94.6711 149.339 96.047C145.653 98.8298 143.5 101.974 143.5 105.367C143.5 108.759 145.653 111.904 149.339 114.687C151.177 116.074 153.417 117.388 156.006 118.615C153.416 119.849 151.176 121.171 149.338 122.567C147.101 124.267 145.429 126.099 144.46 128.04C143.833 129.29 143.5 130.585 143.5 131.918L143.5 131.93L143.5 131.941C143.5 135.351 145.651 138.514 149.338 141.314C151.136 142.68 153.317 143.975 155.835 145.185C153.318 146.388 151.137 147.675 149.339 149.032C145.653 151.815 143.5 154.959 143.5 158.352C143.5 161.744 145.653 164.889 149.339 167.672C151.177 169.06 153.416 170.373 156.006 171.6C153.416 172.834 151.176 174.156 149.338 175.552C145.651 178.352 143.5 181.515 143.5 184.926C143.5 188.337 145.651 191.499 149.338 194.3C151.176 195.696 153.416 197.018 156.006 198.252C153.417 199.479 151.177 200.792 149.339 202.18C145.653 204.963 143.5 208.107 143.5 211.5C143.5 214.893 145.653 218.037 149.339 220.82C151.162 222.196 153.379 223.499 155.941 224.717C153.379 225.934 151.162 227.238 149.339 228.614C145.653 231.397 143.5 234.541 143.5 237.934C143.5 241.326 145.653 244.471 149.339 247.254C151.162 248.63 153.379 249.933 155.94 251.15C153.379 252.368 151.162 253.671 149.339 255.047C145.653 257.83 143.5 260.974 143.5 264.367C143.5 267.759 145.653 270.904 149.339 273.687C151.177 275.074 153.417 276.388 156.006 277.615C153.416 278.849 151.176 280.171 149.338 281.567C145.651 284.367 143.5 287.53 143.5 290.941C143.5 294.351 145.651 297.514 149.338 300.314C153.033 303.121 158.347 305.627 164.869 307.722C177.92 311.915 195.918 314.5 215.775 314.5C216.051 314.5 216.275 314.276 216.275 314C216.275 313.724 216.051 313.5 215.775 313.5C195.992 313.5 178.102 310.923 165.175 306.77C158.709 304.693 153.512 302.229 149.943 299.518C146.366 296.801 144.5 293.898 144.5 290.941C144.5 287.984 146.366 285.081 149.943 282.363C151.894 280.881 154.332 279.473 157.198 278.162C159.513 279.193 162.081 280.158 164.87 281.049C177.92 285.216 195.918 287.785 215.775 287.785C226.91 287.785 237.008 286.697 244.336 284.93C247.996 284.047 250.993 282.988 253.087 281.794C255.142 280.622 256.5 279.218 256.5 277.583C256.5 275.949 255.142 274.545 253.087 273.373C250.992 272.179 247.996 271.12 244.336 270.238C237.008 268.47 226.91 267.382 215.775 267.382C195.918 267.382 177.92 269.967 164.869 274.16C162.08 275.056 159.512 276.027 157.196 277.065C154.331 275.761 151.893 274.362 149.942 272.889C146.364 270.188 144.5 267.303 144.5 264.367C144.5 261.431 146.364 258.546 149.942 255.845C151.878 254.383 154.294 252.994 157.131 251.699C159.464 252.741 162.054 253.716 164.87 254.616C177.92 258.783 195.918 261.352 215.775 261.352C226.91 261.352 237.008 260.264 244.336 258.496C247.996 257.614 250.992 256.555 253.087 255.361C255.142 254.189 256.5 252.785 256.5 251.151C256.5 249.516 255.142 248.112 253.087 246.94C250.993 245.746 247.996 244.687 244.336 243.804C237.008 242.037 226.91 240.949 215.775 240.949C195.918 240.949 177.92 243.518 164.87 247.685C162.054 248.584 159.464 249.559 157.131 250.602C154.294 249.307 151.878 247.917 149.942 246.455C146.364 243.755 144.5 240.87 144.5 237.934C144.5 234.998 146.364 232.113 149.942 229.412C151.878 227.95 154.294 226.56 157.131 225.265C159.464 226.308 162.054 227.283 164.87 228.182C177.92 232.349 195.918 234.918 215.775 234.918C226.91 234.918 237.008 233.83 244.336 232.063C247.996 231.18 250.992 230.122 253.087 228.928C255.142 227.756 256.5 226.351 256.5 224.717C256.5 223.083 255.142 221.678 253.087 220.506C250.993 219.312 247.996 218.253 244.336 217.37C237.008 215.603 226.91 214.515 215.775 214.515C195.918 214.515 177.92 217.084 164.87 221.251C162.054 222.151 159.464 223.126 157.131 224.168C154.294 222.873 151.878 221.484 149.942 220.022C146.364 217.321 144.5 214.436 144.5 211.5C144.5 208.564 146.364 205.679 149.942 202.978C151.893 201.505 154.331 200.106 157.196 198.802C159.512 199.84 162.08 200.811 164.869 201.707C177.92 205.9 195.918 208.485 215.775 208.485C226.91 208.485 237.008 207.397 244.336 205.63C247.996 204.747 250.993 203.688 253.087 202.494C255.142 201.322 256.5 199.917 256.5 198.283C256.5 196.649 255.142 195.244 253.087 194.072C250.992 192.878 247.996 191.82 244.336 190.937C237.008 189.17 226.91 188.082 215.775 188.082C195.918 188.082 177.92 190.651 164.87 194.818C162.081 195.709 159.513 196.674 157.198 197.705C154.332 196.394 151.894 194.986 149.943 193.503C146.366 190.786 144.5 187.883 144.5 184.926C144.5 181.969 146.366 179.066 149.943 176.348C151.894 174.866 154.332 173.458 157.197 172.147C159.513 173.178 162.081 174.143 164.87 175.034C177.92 179.201 195.918 181.771 215.775 181.771C226.91 181.771 237.008 180.682 244.336 178.915C247.996 178.032 250.993 176.974 253.087 175.779C255.142 174.607 256.5 173.203 256.5 171.569C256.5 169.934 255.142 168.53 253.087 167.358C250.993 166.164 247.996 165.105 244.336 164.222C237.008 162.455 226.91 161.367 215.775 161.367C195.918 161.367 177.92 163.952 164.869 168.145C162.08 169.041 159.512 170.012 157.196 171.05C154.331 169.746 151.893 168.347 149.942 166.874C146.364 164.173 144.5 161.288 144.5 158.352C144.5 155.416 146.364 152.531 149.942 149.83C151.852 148.388 154.229 147.016 157.017 145.736C159.378 146.804 162.008 147.803 164.869 148.722C177.92 152.915 195.918 155.5 215.775 155.5C215.922 155.5 216.054 155.437 216.145 155.336C227.134 155.313 237.089 154.229 244.336 152.481C247.996 151.599 250.993 150.54 253.087 149.346C255.142 148.174 256.5 146.769 256.5 145.135C256.5 143.501 255.142 142.096 253.087 140.924C250.993 139.73 247.996 138.672 244.336 137.789C237.008 136.022 226.91 134.933 215.775 134.933C195.918 134.933 177.92 137.503 164.87 141.67C162.054 142.569 159.464 143.544 157.131 144.586C154.294 143.292 151.878 141.902 149.942 140.44C146.368 137.743 144.505 134.862 144.5 131.93C144.502 130.773 144.789 129.624 145.353 128.491C146.228 126.745 147.769 125.037 149.942 123.397C151.908 121.912 154.368 120.503 157.262 119.191C159.561 120.211 162.107 121.167 164.87 122.049C177.92 126.216 195.918 128.785 215.775 128.785C226.91 128.785 237.008 127.697 244.336 125.93C247.996 125.047 250.993 123.988 253.087 122.794C255.142 121.622 256.5 120.218 256.5 118.583C256.5 116.949 255.142 115.545 253.087 114.373C250.992 113.179 247.996 112.12 244.336 111.238C237.008 109.47 226.91 108.382 215.775 108.382C195.918 108.382 177.92 110.967 164.869 115.16C162.08 116.056 159.512 117.027 157.196 118.065C154.331 116.761 151.893 115.362 149.942 113.889C146.364 111.188 144.5 108.303 144.5 105.367C144.5 102.431 146.364 99.5461 149.942 96.8451C151.878 95.3832 154.294 93.9939 157.131 92.6989C159.464 93.7413 162.054 94.7165 164.87 95.6156C177.92 99.7825 195.918 102.352 215.775 102.352C226.91 102.352 237.008 101.264 244.336 99.4962C247.996 98.6135 250.992 97.5549 253.087 96.3609C255.142 95.189 256.5 93.7847 256.5 92.1506C256.5 90.5162 255.142 89.1118 253.087 87.9398C250.993 86.7456 247.996 85.6869 244.336 84.8042C237.008 83.0367 226.91 81.9485 215.775 81.9485C195.918 81.9485 177.92 84.518 164.87 88.685C162.054 89.5841 159.464 90.5593 157.131 91.6017C154.294 90.3068 151.878 88.9174 149.942 87.4555C146.364 84.7546 144.5 81.8698 144.5 78.9337C144.5 75.9976 146.364 73.1128 149.942 70.4118C151.878 68.9498 154.294 67.5603 157.131 66.2653C159.464 67.3077 162.054 68.2828 164.87 69.1819C177.92 73.3488 195.918 75.918 215.775 75.918C226.91 75.918 237.008 74.8301 244.336 73.0628C247.996 72.1802 250.992 71.1216 253.087 69.9275C255.142 68.7556 256.5 67.3512 256.5 65.7169C256.5 64.0825 255.142 62.6781 253.087 61.5061C250.993 60.3119 247.996 59.2532 244.336 58.3704C237.008 56.603 226.91 55.5149 215.775 55.5149C195.918 55.5149 177.92 58.0843 164.87 62.2514C162.054 63.1505 159.464 64.1257 157.131 65.1681C154.294 63.8731 151.878 62.4838 149.942 61.0218C146.364 58.3209 144.5 55.4361 144.5 52.5C144.5 49.5639 146.364 46.6791 149.942 43.9782C151.893 42.5051 154.331 41.1056 157.196 39.8022C159.512 40.8399 162.08 41.811 164.869 42.7072C177.92 46.8999 195.918 49.4851 215.775 49.4851C226.91 49.4851 237.008 48.397 244.336 46.6295C247.996 45.7468 250.993 44.6881 253.087 43.4939C255.142 42.3219 256.5 40.9175 256.5 39.2831C256.5 37.6488 255.142 36.2444 253.087 35.0725C250.992 33.8784 247.996 32.8198 244.336 31.9371C237.008 30.1699 226.91 29.082 215.775 29.082C195.918 29.082 177.92 31.6512 164.87 35.8181C162.081 36.7087 159.513 37.6738 157.198 38.705C154.332 37.3936 151.894 35.9855 149.943 34.5033C146.366 31.7861 144.5 28.8827 144.5 25.9259C144.5 22.9691 146.366 20.0657 149.943 17.3485C151.894 15.8663 154.332 14.4583 157.197 13.1469C159.513 14.1782 162.081 15.1434 164.87 16.0341C177.92 20.2012 195.918 22.7706 215.775 22.7706C226.91 22.7706 237.008 21.6824 244.336 19.915C247.996 19.0322 250.993 17.9735 253.087 16.7794C255.142 15.6073 256.5 14.2029 256.5 12.5686C256.5 10.9343 255.142 9.52989 253.087 8.35791C250.993 7.16381 247.996 6.10513 244.336 5.2224C237.008 3.45505 226.91 2.36692 215.775 2.36692C195.918 2.36692 177.92 4.95205 164.869 9.14472C162.08 10.0409 159.512 11.0121 157.196 12.0497C154.331 10.7463 151.893 9.34686 149.942 7.87372C146.364 5.17272 144.5 2.2879 144.5 -0.648186C144.5 -3.58425 146.364 -6.46903 149.942 -9.16999C151.878 -10.632 154.294 -12.0213 157.131 -13.3163C159.464 -12.2739 162.054 -11.2987 164.87 -10.3996C177.92 -6.23256 195.918 -3.66321 215.775 -3.66321C226.91 -3.66321 237.008 -4.75134 244.336 -6.5187C247.996 -7.40143 250.993 -8.46011 253.087 -9.6542C255.142 -10.8262 256.5 -12.2306 256.5 -13.8649C256.5 -15.4992 255.142 -16.9036 253.087 -18.0756C250.993 -19.2696 247.996 -20.3283 244.336 -21.2111C237.008 -22.9784 226.91 -24.0665 215.775 -24.0665C195.918 -24.0665 177.92 -21.4972 164.87 -17.3302C162.054 -16.4311 159.464 -15.4559 157.131 -14.4135C154.294 -15.7085 151.878 -17.0979 149.942 -18.5598C146.364 -21.2608 144.5 -24.1456 144.5 -27.0816C144.5 -30.0177 146.364 -32.9025 149.942 -35.6035C153.511 -38.2982 158.708 -40.7462 165.174 -42.8111C178.102 -46.9389 195.992 -49.5 215.775 -49.5C216.051 -49.5 216.275 -49.7239 216.275 -50C216.275 -50.2761 216.051 -50.5 215.775 -50.5ZM215.775 109.5C215.898 109.5 216.01 109.456 216.097 109.383C227.049 109.403 236.94 110.483 244.101 112.21C247.72 113.083 250.614 114.115 252.591 115.242C254.607 116.391 255.5 117.539 255.5 118.583C255.5 119.628 254.607 120.776 252.591 121.926C250.614 123.053 247.72 124.085 244.101 124.958C236.87 126.702 226.855 127.785 215.775 127.785C195.992 127.785 178.102 125.224 165.174 121.096C162.771 120.329 160.544 119.509 158.51 118.643C160.544 117.776 162.771 116.956 165.174 116.189C178.102 112.061 195.992 109.5 215.775 109.5ZM165.174 280.096C162.743 279.32 160.491 278.489 158.438 277.612C160.491 276.729 162.744 275.893 165.175 275.112C178.102 270.959 195.992 268.382 215.775 268.382C226.855 268.382 236.87 269.466 244.101 271.21C247.72 272.083 250.614 273.115 252.591 274.242C254.607 275.391 255.5 276.539 255.5 277.583C255.5 278.628 254.607 279.776 252.591 280.926C250.614 282.053 247.72 283.085 244.101 283.958C236.87 285.702 226.855 286.785 215.775 286.785C195.992 286.785 178.102 284.224 165.174 280.096ZM165.174 253.663C162.717 252.878 160.443 252.038 158.372 251.15C160.443 250.262 162.717 249.422 165.174 248.638C178.102 244.51 195.992 241.949 215.775 241.949C226.855 241.949 236.87 243.032 244.101 244.776C247.72 245.649 250.614 246.681 252.591 247.808C254.607 248.958 255.5 250.106 255.5 251.151C255.5 252.195 254.607 253.343 252.591 254.492C250.614 255.619 247.72 256.651 244.101 257.524C236.87 259.268 226.855 260.352 215.775 260.352C195.992 260.352 178.102 257.791 165.174 253.663ZM165.174 227.229C162.717 226.445 160.443 225.605 158.372 224.717C160.443 223.829 162.717 222.989 165.174 222.204C178.102 218.076 195.992 215.515 215.775 215.515C226.855 215.515 236.87 216.599 244.101 218.343C247.72 219.216 250.614 220.247 252.591 221.375C254.607 222.524 255.5 223.672 255.5 224.717C255.5 225.762 254.607 226.909 252.591 228.059C250.614 229.186 247.72 230.218 244.101 231.091C236.87 232.835 226.855 233.918 215.775 233.918C195.992 233.918 178.102 231.357 165.174 227.229ZM165.175 200.755C162.744 199.974 160.491 199.138 158.438 198.255C160.491 197.378 162.743 196.547 165.174 195.771C178.102 191.643 195.992 189.082 215.775 189.082C226.855 189.082 236.87 190.165 244.101 191.909C247.72 192.782 250.614 193.814 252.591 194.941C254.607 196.091 255.5 197.238 255.5 198.283C255.5 199.328 254.607 200.476 252.591 201.625C250.614 202.753 247.72 203.784 244.101 204.657C236.87 206.401 226.855 207.485 215.775 207.485C195.992 207.485 178.102 204.908 165.175 200.755ZM165.174 174.081C162.743 173.305 160.491 172.474 158.438 171.597C160.491 170.714 162.743 169.878 165.175 169.097C178.102 164.944 195.992 162.367 215.775 162.367C226.855 162.367 236.87 163.451 244.101 165.195C247.72 166.067 250.614 167.099 252.591 168.227C254.607 169.376 255.5 170.524 255.5 171.569C255.5 172.613 254.607 173.761 252.591 174.911C250.614 176.038 247.72 177.07 244.101 177.943C236.87 179.687 226.855 180.771 215.775 180.771C195.992 180.771 178.102 178.209 165.174 174.081ZM165.174 147.648C162.717 146.863 160.443 146.023 158.372 145.135C160.443 144.247 162.717 143.407 165.174 142.622C178.102 138.495 195.992 135.933 215.775 135.933C226.855 135.933 236.87 137.017 244.101 138.761C247.72 139.634 250.614 140.666 252.591 141.793C254.607 142.943 255.5 144.09 255.5 145.135C255.5 146.18 254.607 147.328 252.591 148.477C250.614 149.604 247.72 150.636 244.101 151.509C236.87 153.253 226.855 154.337 215.775 154.337C195.992 154.337 178.102 151.776 165.174 147.648ZM165.174 94.663C162.717 93.8783 160.443 93.0382 158.372 92.1503C160.443 91.2624 162.717 90.4223 165.174 89.6376C178.102 85.5098 195.992 82.9485 215.775 82.9485C226.855 82.9485 236.87 84.0323 244.101 85.7763C247.72 86.6492 250.614 87.6811 252.591 88.8085C254.607 89.9579 255.5 91.1058 255.5 92.1506C255.5 93.1951 254.607 94.3428 252.591 95.4922C250.614 96.6194 247.72 97.6512 244.101 98.5241C236.87 100.268 226.855 101.352 215.775 101.352C195.992 101.352 178.102 98.7907 165.174 94.663ZM165.174 68.2293C162.717 67.4446 160.443 66.6046 158.372 65.7167C160.443 64.8288 162.717 63.9887 165.174 63.204C178.102 59.0761 195.992 56.5149 215.775 56.5149C226.855 56.5149 236.87 57.5986 244.101 59.3426C247.72 60.2155 250.614 61.2474 252.591 62.3747C254.607 63.5242 255.5 64.6721 255.5 65.7169C255.5 66.7616 254.607 67.9095 252.591 69.0588C250.614 70.1861 247.72 71.2179 244.101 72.0907C236.87 73.8345 226.855 74.918 215.775 74.918C195.992 74.918 178.102 72.357 165.174 68.2293ZM165.175 41.7551C162.744 40.9738 160.491 40.1381 158.438 39.2551C160.491 38.3776 162.743 37.5471 165.174 36.7707C178.102 32.643 195.992 30.082 215.775 30.082C226.855 30.082 236.87 31.1655 244.101 32.9093C247.72 33.7821 250.614 34.8139 252.591 35.9412C254.607 37.0905 255.5 38.2383 255.5 39.2831C255.5 40.3279 254.607 41.4758 252.591 42.6252C250.614 43.7526 247.72 44.7845 244.101 45.6574C236.87 47.4014 226.855 48.4851 215.775 48.4851C195.992 48.4851 178.102 45.9082 165.175 41.7551ZM165.174 15.0815C162.743 14.305 160.491 13.4744 158.438 12.5969C160.491 11.7139 162.743 10.8781 165.175 10.0968C178.102 5.94374 195.992 3.36692 215.775 3.36692C226.855 3.36692 236.87 4.45057 244.101 6.19453C247.72 7.06746 250.614 8.09931 252.591 9.2266C254.607 10.376 255.5 11.5238 255.5 12.5686C255.5 13.6134 254.607 14.7613 252.591 15.9107C250.614 17.038 247.72 18.0699 244.101 18.9429C236.87 20.6869 226.855 21.7706 215.775 21.7706C195.992 21.7706 178.102 19.2094 165.174 15.0815ZM165.174 -11.3522C162.717 -12.1369 160.443 -12.977 158.372 -13.8649C160.443 -14.7528 162.717 -15.5929 165.174 -16.3776C178.102 -20.5054 195.992 -23.0665 215.775 -23.0665C226.855 -23.0665 236.87 -21.9829 244.101 -20.2389C247.72 -19.366 250.614 -18.3341 252.591 -17.2069C254.607 -16.0575 255.5 -14.9096 255.5 -13.8649C255.5 -12.8201 254.607 -11.6723 252.591 -10.5229C250.614 -9.39561 247.72 -8.36375 244.101 -7.49083C236.87 -5.74687 226.855 -4.66321 215.775 -4.66321C195.992 -4.66321 178.102 -7.22436 165.174 -11.3522ZM73.4159 85.5C53.382 85.5 35.2248 88.0692 22.0592 92.2359C15.4793 94.3184 10.1181 96.8085 6.39122 99.5972C2.67319 102.379 0.5 105.524 0.5 108.918C0.5 112.313 2.67319 115.458 6.39122 118.24C8.22952 119.615 10.4654 120.918 13.049 122.135C10.4654 123.352 8.22952 124.655 6.39122 126.031C2.67319 128.813 0.5 131.957 0.5 135.352C0.5 138.746 2.67318 141.891 6.39122 144.673C8.24513 146.06 10.5034 147.374 13.115 148.6C10.5029 149.833 8.24423 151.155 6.39005 152.551C2.67157 155.35 0.5 158.513 0.5 161.926C0.5 165.339 2.67157 168.501 6.39004 171.301C8.24428 172.697 10.503 174.018 13.1152 175.252C10.5036 176.478 8.24519 177.792 6.39122 179.179C2.67319 181.961 0.5 185.105 0.5 188.5C0.5 191.895 2.67319 195.039 6.39122 197.821C8.22956 199.197 10.4655 200.5 13.0492 201.717C10.4655 202.934 8.22955 204.237 6.39122 205.612C2.67318 208.394 0.5 211.539 0.5 214.934C0.5 218.328 2.67319 221.473 6.39122 224.255C8.2295 225.63 10.4654 226.933 13.049 228.15C10.4654 229.367 8.22951 230.67 6.39123 232.046C2.6732 234.828 0.5 237.972 0.5 241.367C0.5 244.761 2.67318 247.906 6.39122 250.688C8.24518 252.075 10.5036 253.389 13.1152 254.615C10.5031 255.848 8.24428 257.17 6.39005 258.566C4.13318 260.265 2.44615 262.098 1.4686 264.039C0.835578 265.289 0.5 266.584 0.5 267.918L0.500008 267.93L0.5 267.941C0.5 271.353 2.67157 274.516 6.39004 277.316C8.20336 278.681 10.4036 279.975 12.9428 281.185C10.4041 282.388 8.20427 283.674 6.39122 285.031C2.67319 287.813 0.5 290.957 0.5 294.352C0.5 297.746 2.67318 300.891 6.39122 303.673C8.24513 305.06 10.5034 306.374 13.115 307.6C10.5029 308.833 8.24422 310.155 6.39005 311.551C2.67157 314.35 0.5 317.513 0.5 320.926C0.5 324.339 2.67157 327.501 6.39004 330.301C8.24428 331.697 10.503 333.018 13.1152 334.252C10.5036 335.478 8.24519 336.792 6.39122 338.179C2.67319 340.961 0.5 344.105 0.5 347.5C0.5 350.895 2.67319 354.039 6.39122 356.821C8.22955 358.197 10.4655 359.5 13.0492 360.717C10.4655 361.934 8.22955 363.237 6.39122 364.612C2.67318 367.394 0.5 370.539 0.5 373.934C0.5 377.328 2.67319 380.473 6.39122 383.255C8.22951 384.63 10.4654 385.933 13.049 387.15C10.4654 388.367 8.22951 389.67 6.39123 391.046C2.6732 393.828 0.5 396.972 0.5 400.367C0.5 403.761 2.67318 406.906 6.39122 409.688C8.24518 411.075 10.5035 412.389 13.1152 413.615C10.503 414.848 8.24428 416.17 6.39005 417.566C2.67157 420.365 0.5 423.528 0.5 426.941C0.5 430.353 2.67157 433.516 6.39005 436.316C10.117 439.122 15.4783 441.627 22.0583 443.722C35.2242 447.915 53.3818 450.5 73.4159 450.5C73.6921 450.5 73.9159 450.276 73.9159 450C73.9159 449.724 73.6921 449.5 73.4159 449.5C53.4556 449.5 35.4052 446.923 22.3618 442.77C15.8372 440.692 10.5934 438.229 6.9915 435.517C3.38112 432.799 1.5 429.896 1.5 426.941C1.5 423.986 3.38112 421.083 6.9915 418.365C8.96142 416.882 11.4224 415.473 14.3155 414.161C16.6519 415.193 19.244 416.158 22.0592 417.049C35.2248 421.216 53.382 423.785 73.4159 423.785C84.6501 423.785 94.837 422.697 102.229 420.93C105.922 420.047 108.945 418.989 111.057 417.795C113.129 416.624 114.5 415.22 114.5 413.583C114.5 411.947 113.129 410.543 111.057 409.372C108.945 408.179 105.922 407.12 102.229 406.238C94.837 404.47 84.6501 403.382 73.4159 403.382C53.3818 403.382 35.2243 405.967 22.0583 410.159C19.243 411.056 16.6508 412.027 14.3142 413.065C11.4212 411.761 8.96022 410.361 6.99033 408.887C3.37951 406.185 1.5 403.301 1.5 400.367C1.5 397.433 3.37949 394.548 6.99032 391.846C8.94524 390.384 11.3838 388.994 14.2483 387.698C16.6022 388.741 19.217 389.716 22.0592 390.616C35.2248 394.783 53.382 397.352 73.4159 397.352C84.6501 397.352 94.837 396.264 102.229 394.496C105.922 393.614 108.945 392.555 111.057 391.362C113.129 390.191 114.5 388.787 114.5 387.151C114.5 385.514 113.129 384.11 111.057 382.939C108.945 381.745 105.922 380.687 102.229 379.804C94.837 378.037 84.6501 376.949 73.4159 376.949C53.382 376.949 35.2248 379.518 22.0592 383.685C19.217 384.584 16.6022 385.56 14.2483 386.603C11.3838 385.307 8.94523 383.917 6.99032 382.454C3.3795 379.752 1.5 376.868 1.5 373.934C1.5 371 3.37951 368.115 6.99033 365.413C8.94528 363.95 11.3839 362.56 14.2485 361.265C16.6024 362.307 19.2171 363.283 22.0592 364.182C35.2248 368.349 53.382 370.918 73.4159 370.918C84.6501 370.918 94.837 369.83 102.229 368.063C105.922 367.181 108.945 366.122 111.057 364.928C113.129 363.758 114.5 362.353 114.5 360.717C114.5 359.08 113.129 357.676 111.057 356.505C108.945 355.311 105.922 354.253 102.229 353.37C94.837 351.603 84.6501 350.515 73.4159 350.515C53.382 350.515 35.2248 353.084 22.0592 357.251C19.2171 358.151 16.6023 359.126 14.2485 360.169C11.3839 358.873 8.94527 357.483 6.99032 356.021C3.3795 353.319 1.5 350.434 1.5 347.5C1.5 344.566 3.3795 341.681 6.99032 338.979C8.96021 337.506 11.4212 336.105 14.3142 334.801C16.6508 335.839 19.243 336.811 22.0583 337.708C35.2242 341.9 53.3818 344.485 73.4159 344.485C84.6501 344.485 94.837 343.397 102.229 341.63C105.922 340.747 108.945 339.689 111.057 338.495C113.129 337.324 114.5 335.92 114.5 334.283C114.5 332.647 113.129 331.242 111.057 330.072C108.945 328.878 105.922 327.819 102.229 326.937C94.837 325.17 84.6501 324.082 73.4159 324.082C53.382 324.082 35.2248 326.651 22.0592 330.818C19.244 331.709 16.6519 332.674 14.3155 333.706C11.4224 332.394 8.96142 330.985 6.9915 329.502C3.38112 326.784 1.5 323.881 1.5 320.926C1.5 317.971 3.38112 315.068 6.9915 312.35C8.96136 310.867 11.4223 309.458 14.3152 308.146C16.6517 309.178 19.2439 310.143 22.0592 311.034C35.2248 315.201 53.382 317.771 73.4159 317.771C84.6501 317.771 94.837 316.682 102.229 314.915C105.922 314.033 108.945 312.974 111.057 311.78C113.129 310.609 114.5 309.205 114.5 307.569C114.5 305.932 113.129 304.528 111.057 303.357C108.945 302.163 105.922 301.105 102.229 300.222C94.837 298.455 84.6501 297.367 73.4159 297.367C53.3818 297.367 35.2243 299.952 22.0583 304.144C19.2429 305.041 16.6506 306.012 14.314 307.051C11.4211 305.747 8.96016 304.346 6.99033 302.872C3.3795 300.171 1.5 297.286 1.5 294.352C1.5 291.418 3.3795 288.533 6.99032 285.831C8.91891 284.388 11.3182 283.016 14.1328 281.735C16.5164 282.804 19.1699 283.803 22.0583 284.722C35.2242 288.915 53.3818 291.5 73.4159 291.5C73.5625 291.5 73.6944 291.437 73.7858 291.336C84.8736 291.313 94.9182 290.229 102.229 288.482C105.922 287.599 108.945 286.54 111.057 285.347C113.129 284.176 114.5 282.772 114.5 281.135C114.5 279.499 113.129 278.094 111.057 276.924C108.945 275.73 105.922 274.671 102.229 273.789C94.837 272.022 84.6501 270.933 73.4159 270.933C53.382 270.933 35.2248 273.503 22.0592 277.669C19.217 278.569 16.6022 279.544 14.2484 280.587C11.3838 279.292 8.94524 277.902 6.99032 276.439C3.38408 273.74 1.50476 270.86 1.50001 267.93C1.50187 266.773 1.79171 265.625 2.36041 264.493C3.24298 262.747 4.79735 261.039 6.99032 259.398C8.97529 257.913 11.4589 256.502 14.3807 255.19C16.7002 256.211 19.2702 257.167 22.0592 258.049C35.2248 262.216 53.382 264.785 73.4159 264.785C84.6501 264.785 94.837 263.697 102.229 261.93C105.922 261.047 108.945 259.989 111.057 258.795C113.129 257.624 114.5 256.22 114.5 254.583C114.5 252.947 113.129 251.543 111.057 250.372C108.945 249.179 105.922 248.12 102.229 247.237C94.837 245.47 84.6501 244.382 73.4159 244.382C53.3818 244.382 35.2243 246.967 22.0583 251.159C19.243 252.056 16.6508 253.027 14.3142 254.065C11.4212 252.761 8.96022 251.361 6.99033 249.887C3.37951 247.185 1.5 244.301 1.5 241.367C1.5 238.433 3.37949 235.548 6.99032 232.846C8.94523 231.384 11.3838 229.994 14.2483 228.698C16.6022 229.741 19.217 230.716 22.0592 231.616C35.2248 235.783 53.382 238.352 73.4159 238.352C84.6501 238.352 94.837 237.264 102.229 235.496C105.922 234.614 108.945 233.555 111.057 232.362C113.129 231.191 114.5 229.787 114.5 228.151C114.5 226.514 113.129 225.11 111.057 223.939C108.945 222.745 105.922 221.687 102.229 220.804C94.837 219.037 84.6501 217.949 73.4159 217.949C53.382 217.949 35.2248 220.518 22.0592 224.685C19.217 225.584 16.6022 226.56 14.2483 227.603C11.3838 226.307 8.94523 224.917 6.99032 223.454C3.3795 220.752 1.5 217.868 1.5 214.934C1.5 212 3.37951 209.115 6.99033 206.413C8.94528 204.95 11.3839 203.56 14.2485 202.265C16.6024 203.307 19.2171 204.283 22.0592 205.182C35.2248 209.349 53.382 211.918 73.4159 211.918C84.6501 211.918 94.837 210.83 102.229 209.063C105.922 208.181 108.945 207.122 111.057 205.928C113.129 204.758 114.5 203.353 114.5 201.717C114.5 200.08 113.129 198.676 111.057 197.505C108.945 196.311 105.922 195.253 102.229 194.37C94.837 192.603 84.6501 191.515 73.4159 191.515C53.382 191.515 35.2248 194.084 22.0592 198.251C19.2171 199.151 16.6024 200.126 14.2485 201.169C11.3839 199.873 8.94528 198.483 6.99032 197.021C3.3795 194.319 1.5 191.434 1.5 188.5C1.5 185.566 3.3795 182.681 6.99032 179.979C8.96021 178.506 11.4212 177.105 14.3142 175.801C16.6508 176.839 19.243 177.811 22.0583 178.708C35.2242 182.9 53.3818 185.485 73.4159 185.485C84.6501 185.485 94.837 184.397 102.229 182.63C105.922 181.747 108.945 180.689 111.057 179.495C113.129 178.324 114.5 176.92 114.5 175.283C114.5 173.647 113.129 172.242 111.057 171.072C108.945 169.878 105.922 168.819 102.229 167.937C94.837 166.17 84.6501 165.082 73.4159 165.082C53.382 165.082 35.2248 167.651 22.0592 171.818C19.244 172.709 16.6519 173.674 14.3155 174.706C11.4224 173.394 8.96142 171.985 6.9915 170.502C3.38112 167.784 1.5 164.881 1.5 161.926C1.5 158.971 3.38112 156.068 6.9915 153.35C8.96136 151.867 11.4223 150.458 14.3152 149.146C16.6517 150.178 19.2439 151.143 22.0592 152.034C35.2248 156.201 53.382 158.771 73.4159 158.771C84.6501 158.771 94.837 157.682 102.229 155.915C105.922 155.033 108.945 153.974 111.057 152.78C113.129 151.609 114.5 150.205 114.5 148.569C114.5 146.932 113.129 145.528 111.057 144.357C108.945 143.163 105.922 142.105 102.229 141.222C94.837 139.455 84.6501 138.367 73.4159 138.367C53.3818 138.367 35.2243 140.952 22.0583 145.144C19.2429 146.041 16.6506 147.012 14.314 148.051C11.4211 146.747 8.96016 145.346 6.99033 143.872C3.3795 141.171 1.5 138.286 1.5 135.352C1.5 132.418 3.3795 129.533 6.99032 126.831C8.94524 125.369 11.3838 123.978 14.2484 122.683C16.6022 123.726 19.217 124.701 22.0592 125.601C35.2248 129.768 53.382 132.337 73.4159 132.337C84.6501 132.337 94.837 131.249 102.229 129.482C105.922 128.599 108.945 127.54 111.057 126.347C113.129 125.176 114.5 123.772 114.5 122.135C114.5 120.499 113.129 119.094 111.057 117.924C108.945 116.73 105.922 115.671 102.229 114.789C94.837 113.022 84.6501 111.933 73.4159 111.933C53.382 111.933 35.2248 114.503 22.0592 118.669C19.217 119.569 16.6022 120.544 14.2484 121.587C11.3838 120.292 8.94524 118.902 6.99032 117.439C3.3795 114.737 1.5 111.852 1.5 108.918C1.5 105.984 3.3795 103.1 6.99032 100.398C10.5923 97.7027 15.8361 95.2543 22.3609 93.1893C35.4047 89.0612 53.4554 86.5 73.4159 86.5C73.6921 86.5 73.9159 86.2761 73.9159 86C73.9159 85.7239 73.6921 85.5 73.4159 85.5ZM73.4159 245.5C73.5386 245.5 73.6509 245.456 73.7379 245.383C84.7895 245.403 94.7709 246.483 101.997 248.21C105.649 249.083 108.569 250.115 110.565 251.243C112.6 252.393 113.5 253.541 113.5 254.583C113.5 255.626 112.6 256.774 110.565 257.925C108.569 259.052 105.649 260.084 101.997 260.957C94.7008 262.702 84.5956 263.785 73.4159 263.785C53.4554 263.785 35.4047 261.224 22.3609 257.096C19.9369 256.329 17.6896 255.509 15.6377 254.643C17.6896 253.777 19.9369 252.956 22.3609 252.189C35.4047 248.061 53.4554 245.5 73.4159 245.5ZM22.3609 416.096C19.9082 415.32 17.6365 414.489 15.565 413.612C17.6367 412.729 19.9087 411.893 22.3618 411.112C35.4052 406.959 53.4556 404.382 73.4159 404.382C84.5956 404.382 94.7008 405.466 101.997 407.21C105.649 408.083 108.569 409.115 110.565 410.243C112.6 411.393 113.5 412.541 113.5 413.583C113.5 414.626 112.6 415.774 110.565 416.925C108.569 418.052 105.649 419.084 101.997 419.957C94.7008 421.702 84.5956 422.785 73.4159 422.785C53.4554 422.785 35.4047 420.224 22.3609 416.096ZM22.3609 389.663C19.8818 388.878 17.5877 388.038 15.4982 387.15C17.5877 386.263 19.8818 385.423 22.3609 384.638C35.4047 380.51 53.4554 377.949 73.4159 377.949C84.5956 377.949 94.7008 379.032 101.997 380.776C105.649 381.65 108.569 382.682 110.565 383.809C112.6 384.96 113.5 386.108 113.5 387.151C113.5 388.193 112.6 389.341 110.565 390.491C108.569 391.619 105.649 392.651 101.997 393.524C94.7008 395.268 84.5956 396.352 73.4159 396.352C53.4554 396.352 35.4047 393.791 22.3609 389.663ZM22.3609 363.229C19.8819 362.444 17.5878 361.604 15.4984 360.717C17.5878 359.829 19.8819 358.989 22.3609 358.204C35.4047 354.076 53.4554 351.515 73.4159 351.515C84.5956 351.515 94.7008 352.599 101.997 354.343C105.649 355.216 108.569 356.248 110.565 357.376C112.6 358.526 113.5 359.674 113.5 360.717C113.5 361.759 112.6 362.908 110.565 364.058C108.569 365.186 105.649 366.218 101.997 367.09C94.7008 368.835 84.5956 369.918 73.4159 369.918C53.4554 369.918 35.4047 367.357 22.3609 363.229ZM22.3618 336.755C19.9087 335.974 17.6367 335.138 15.565 334.255C17.6365 333.378 19.9082 332.547 22.3609 331.771C35.4047 327.643 53.4554 325.082 73.4159 325.082C84.5956 325.082 94.7008 326.166 101.997 327.91C105.649 328.782 108.569 329.814 110.565 330.942C112.6 332.092 113.5 333.241 113.5 334.283C113.5 335.326 112.6 336.474 110.565 337.624C108.569 338.752 105.649 339.784 101.997 340.657C94.7008 342.401 84.5956 343.485 73.4159 343.485C53.4556 343.485 35.4052 340.908 22.3618 336.755ZM22.3609 310.081C19.9081 309.305 17.6363 308.474 15.5647 307.597C17.6365 306.714 19.9086 305.878 22.3618 305.097C35.4052 300.944 53.4556 298.367 73.4159 298.367C84.5956 298.367 94.7008 299.451 101.997 301.195C105.649 302.068 108.569 303.1 110.565 304.228C112.6 305.378 113.5 306.526 113.5 307.569C113.5 308.611 112.6 309.759 110.565 310.91C108.569 312.037 105.649 313.07 101.997 313.943C94.7008 315.687 84.5956 316.771 73.4159 316.771C53.4554 316.771 35.4047 314.209 22.3609 310.081ZM22.3609 283.647C19.8818 282.863 17.5877 282.023 15.4982 281.135C17.5877 280.247 19.8818 279.407 22.3609 278.623C35.4047 274.495 53.4554 271.933 73.4159 271.933C84.5956 271.933 94.7008 273.017 101.997 274.761C105.649 275.634 108.569 276.666 110.565 277.794C112.6 278.944 113.5 280.093 113.5 281.135C113.5 282.178 112.6 283.326 110.565 284.476C108.569 285.604 105.649 286.636 101.997 287.509C94.7008 289.253 84.5956 290.337 73.4159 290.337C53.4554 290.337 35.4047 287.776 22.3609 283.647ZM22.3609 230.663C19.8818 229.878 17.5876 229.038 15.4982 228.15C17.5876 227.263 19.8818 226.423 22.3609 225.638C35.4047 221.51 53.4554 218.949 73.4159 218.949C84.5956 218.949 94.7008 220.032 101.997 221.776C105.649 222.65 108.569 223.682 110.565 224.809C112.6 225.96 113.5 227.108 113.5 228.151C113.5 229.193 112.6 230.341 110.565 231.491C108.569 232.619 105.649 233.651 101.997 234.524C94.7008 236.268 84.5956 237.352 73.4159 237.352C53.4554 237.352 35.4047 234.791 22.3609 230.663ZM22.3609 204.229C19.8819 203.444 17.5878 202.604 15.4984 201.717C17.5878 200.829 19.8819 199.989 22.3609 199.204C35.4047 195.076 53.4554 192.515 73.4159 192.515C84.5956 192.515 94.7008 193.599 101.997 195.343C105.649 196.216 108.569 197.248 110.565 198.376C112.6 199.526 113.5 200.674 113.5 201.717C113.5 202.759 112.6 203.908 110.565 205.058C108.569 206.186 105.649 207.218 101.997 208.09C94.7008 209.834 84.5956 210.918 73.4159 210.918C53.4554 210.918 35.4047 208.357 22.3609 204.229ZM22.3618 177.755C19.9087 176.974 17.6367 176.138 15.5649 175.255C17.6365 174.378 19.9082 173.547 22.3609 172.771C35.4047 168.643 53.4554 166.082 73.4159 166.082C84.5956 166.082 94.7008 167.165 101.997 168.91C105.649 169.782 108.569 170.814 110.565 171.942C112.6 173.092 113.5 174.241 113.5 175.283C113.5 176.326 112.6 177.474 110.565 178.624C108.569 179.752 105.649 180.784 101.997 181.657C94.7008 183.401 84.5956 184.485 73.4159 184.485C53.4556 184.485 35.4052 181.908 22.3618 177.755ZM22.3609 151.081C19.9081 150.305 17.6363 149.474 15.5647 148.597C17.6365 147.714 19.9086 146.878 22.3618 146.097C35.4052 141.944 53.4556 139.367 73.4159 139.367C84.5956 139.367 94.7008 140.451 101.997 142.195C105.649 143.068 108.569 144.1 110.565 145.228C112.6 146.378 113.5 147.526 113.5 148.569C113.5 149.611 112.6 150.759 110.565 151.91C108.569 153.037 105.649 154.07 101.997 154.943C94.7008 156.687 84.5956 157.771 73.4159 157.771C53.4554 157.771 35.4047 155.209 22.3609 151.081ZM22.3609 124.647C19.8818 123.863 17.5877 123.023 15.4982 122.135C17.5877 121.247 19.8818 120.407 22.3609 119.623C35.4047 115.495 53.4554 112.933 73.4159 112.933C84.5956 112.933 94.7008 114.017 101.997 115.761C105.649 116.634 108.569 117.666 110.565 118.794C112.6 119.944 113.5 121.093 113.5 122.135C113.5 123.178 112.6 124.326 110.565 125.476C108.569 126.604 105.649 127.636 101.997 128.509C94.7008 130.253 84.5956 131.337 73.4159 131.337C53.4554 131.337 35.4047 128.776 22.3609 124.647Z" fill="#A1A6B4"/>
</svg>
